<svg width="50" height="49" viewBox="0 0 50 49" fill="none" xmlns="http://www.w3.org/2000/svg">
<path d="M50 24.4578C50 10.9751 38.8187 0.062973 25 0.062973C11.1828 0.062973 0 10.9736 0 24.4578C0 37.8211 11.0878 48.8527 25 48.8527C38.855 48.8527 50 37.8826 50 24.4578ZM25 2.92175C37.1696 2.92175 47.0703 12.5827 47.0703 24.4578C47.0703 28.8019 45.7463 32.9773 43.2907 36.5139C33.4305 26.1642 16.5874 26.1456 6.70929 36.5139C4.25377 32.9773 2.92969 28.8019 2.92969 24.4578C2.92969 12.5827 12.8304 2.92175 25 2.92175ZM8.53656 38.7994C17.3034 29.2039 32.6988 29.2061 41.4631 38.7994C32.6668 48.4023 17.3366 48.4053 8.53656 38.7994Z" fill="#102923"/>
<path d="M25 25.8873C29.8462 25.8873 33.7891 22.0398 33.7891 17.311V14.4522C33.7891 9.72331 29.8462 5.87589 25 5.87589C20.1538 5.87589 16.2109 9.72331 16.2109 14.4522V17.311C16.2109 22.0398 20.1538 25.8873 25 25.8873ZM19.1406 14.4522C19.1406 11.2994 21.769 8.73468 25 8.73468C28.231 8.73468 30.8594 11.2994 30.8594 14.4522V17.311C30.8594 20.4638 28.231 23.0286 25 23.0286C21.769 23.0286 19.1406 20.4638 19.1406 17.311V14.4522Z" fill="#102923"/>
</svg>
